<svg id="wave" style="transform:rotate(0deg); transition: 0.3s" viewBox="0 0 1440 490" version="1.1"
  xmlns="http://www.w3.org/2000/svg">
  <defs>
    <linearGradient id="sw-gradient-0" x1="0" x2="0" y1="1" y2="0">
      <stop stop-color="rgba(255, 130, 115, 1)" offset="0%"></stop>
      <stop stop-color="rgba(255, 130, 115, 1)" offset="100%"></stop>
    </linearGradient>
  </defs>
  <path style="transform:translate(0, 0px); opacity:1" fill="url(#sw-gradient-0)" d="M0,392L26.7,343C53.3,294,107,196,160,187.8C213.3,180,267,261,320,245C373.3,229,427,114,480,73.5C533.3,33,587,65,640,98C693.3,131,747,163,800,187.8C853.3,212,907,229,960,269.5C1013.3,310,1067,376,1120,351.2C1173.3,327,1227,212,1280,212.3C1333.3,212,1387,327,1440,375.7C1493.3,425,1547,408,1600,375.7C1653.3,343,1707,294,1760,285.8C1813.3,278,1867,310,1920,326.7C1973.3,343,2027,343,2080,285.8C2133.3,229,2187,114,2240,89.8C2293.3,65,2347,131,2400,171.5C2453.3,212,2507,229,2560,228.7C2613.3,229,2667,212,2720,179.7C2773.3,147,2827,98,2880,106.2C2933.3,114,2987,180,3040,179.7C3093.3,180,3147,114,3200,114.3C3253.3,114,3307,180,3360,171.5C3413.3,163,3467,82,3520,114.3C3573.3,147,3627,294,3680,334.8C3733.3,376,3787,310,3813,277.7L3840,245L3840,490L3813.3,490C3786.7,490,3733,490,3680,490C3626.7,490,3573,490,3520,490C3466.7,490,3413,490,3360,490C3306.7,490,3253,490,3200,490C3146.7,490,3093,490,3040,490C2986.7,490,2933,490,2880,490C2826.7,490,2773,490,2720,490C2666.7,490,2613,490,2560,490C2506.7,490,2453,490,2400,490C2346.7,490,2293,490,2240,490C2186.7,490,2133,490,2080,490C2026.7,490,1973,490,1920,490C1866.7,490,1813,490,1760,490C1706.7,490,1653,490,1600,490C1546.7,490,1493,490,1440,490C1386.7,490,1333,490,1280,490C1226.7,490,1173,490,1120,490C1066.7,490,1013,490,960,490C906.7,490,853,490,800,490C746.7,490,693,490,640,490C586.7,490,533,490,480,490C426.7,490,373,490,320,490C266.7,490,213,490,160,490C106.7,490,53,490,27,490L0,490Z"></path>
</svg>
