<svg width="228" height="199" viewBox="0 0 228 199" fill="none"
  xmlns="http://www.w3.org/2000/svg">
  <path d="M62.7849 72.1907L228.383 72.1907V0.00778961L62.7849 0.00778961V72.1907Z" fill="#3FB8D2"/>
  <path d="M125.849 72.1828C125.849 37.4338 97.6737 9.25806 62.9247 9.25806C28.1757 9.25806 0 37.4338 0 72.1828C0 106.932 28.1757 135.107 62.9247 135.107C97.6737 135.107 125.849 106.932 125.849 72.1828Z" fill="#FEFBE8"/>
  <path d="M62.9251 72.1828H0.03125C0.03125 37.4338 28.207 9.25806 62.956 9.25806V72.1828H62.9251Z" fill="#1A1C3D"/>
  <path d="M125.847 72.1828H62.9219V9.25806C97.6709 9.25806 125.847 37.4338 125.847 72.1828Z" fill="#FEFBE8"/>
  <path d="M62.9242 111.654C84.7117 111.654 102.364 94.0013 102.364 72.2137C102.364 50.4262 84.7117 32.7739 62.9242 32.7739C41.1366 32.7739 23.4844 50.4262 23.4844 72.2137C23.4844 93.9704 41.1366 111.654 62.9242 111.654Z" fill="#FEFBE8"/>
  <path d="M62.9219 72.183V32.7432C84.7094 32.7432 102.362 50.3954 102.362 72.183H62.9219Z" fill="#1A1C3D"/>
  <path d="M38.8242 72.183C38.8242 85.5148 49.6254 96.2851 62.9263 96.2851C76.2581 96.2851 87.0285 85.4839 87.0285 72.183C87.0285 58.8513 76.2272 48.05 62.9263 48.05C49.6254 48.05 38.8242 58.8821 38.8242 72.183Z" fill="#FEFBE8"/>
  <path d="M62.9263 48.0808V72.2138H38.8242C38.8242 58.882 49.6254 48.0808 62.9263 48.0808Z" fill="#3A5485"/>
  <path d="M62.9219 135.108C62.9219 169.857 91.0976 198.032 125.847 198.032C160.596 198.032 188.771 169.857 188.771 135.108C188.771 100.359 160.596 72.1829 125.847 72.1829C91.0976 72.1829 62.9219 100.359 62.9219 135.108Z" fill="#3A5485"/>
  <path d="M125.848 135.108H188.772C188.772 169.857 160.597 198.032 125.848 198.032V135.108Z" fill="#FEFBE8"/>
  <path d="M62.9219 135.108H125.847V198.032C91.0976 198.032 62.9219 169.857 62.9219 135.108Z" fill="#1A1C3D"/>
  <path d="M125.85 95.6677C104.062 95.6677 86.4102 113.32 86.4102 135.108C86.4102 156.895 104.062 174.547 125.85 174.547C147.638 174.547 165.29 156.895 165.29 135.108C165.29 113.32 147.638 95.6677 125.85 95.6677Z" fill="#CFF9FE"/>
  <path d="M165.287 135.108H125.848V95.6677C147.635 95.6677 165.287 113.32 165.287 135.108Z" fill="#1A1C3D"/>
  <path d="M125.85 135.108V174.547C104.062 174.547 86.4102 156.895 86.4102 135.108H125.85Z" fill="#FEFBE8"/>
  <path d="M125.85 95.6677V135.108H86.4102C86.4102 113.32 104.062 95.6677 125.85 95.6677Z" fill="#3A5485"/>
  <path d="M149.982 135.108C149.982 121.776 139.18 111.006 125.879 111.006C112.579 111.006 101.777 121.807 101.777 135.108C101.777 148.439 112.579 159.241 125.879 159.241C139.18 159.241 149.982 148.439 149.982 135.108Z" fill="#1A1C3D"/>
  <path d="M125.848 159.241V135.108H149.95C149.981 148.439 139.179 159.241 125.848 159.241Z" fill="#3A5485"/>
  <path d="M125.848 135.108H101.746C101.746 121.776 112.547 111.006 125.848 111.006V135.108Z" fill="#CFF9FE"/>
  <path d="M149.981 135.108H125.879V111.006C139.18 111.006 149.981 121.807 149.981 135.108Z" fill="#FEFBE8"/>
  <path d="M62.9219 135.108V72.1829H125.847C125.847 106.932 97.6709 135.108 62.9219 135.108Z" fill="#3FB8D2"/>
  <path d="M23.4844 72.1829H62.9242V111.623C41.1366 111.654 23.4844 93.9704 23.4844 72.1829Z" fill="#1A1C3D"/>
  <path d="M62.9219 111.654V72.1829H102.362C102.393 93.9704 84.7094 111.654 62.9219 111.654Z" fill="#3A5485"/>
  <path d="M62.9219 72.1829H87.024C87.024 85.5146 76.2228 96.285 62.9219 96.285V72.1829Z" fill="#FF692E"/>
  <path d="M38.8242 72.1829H62.9263V96.285C49.6254 96.3158 38.8242 85.5146 38.8242 72.1829Z" fill="#FEFBE8"/>
  <path d="M228.368 0V51.0434L177.324 0H228.368Z" fill="#FAC515"/>
</svg>
