<svg width="152" height="155" viewBox="0 0 152 155" fill="none"
  xmlns="http://www.w3.org/2000/svg">
  <path d="M152 76V0L76 0L76 76L152 76Z" fill="#3FB8D2"/>
  <path d="M76 76L76 0L0 0L0 76L76 76Z" fill="#CFF9FE"/>
  <path d="M24.32 51.8343C30.0559 46.0427 35.8204 40.2222 41.5562 34.4307C47.3208 28.6102 53.0853 22.7897 58.8498 16.9692L76 0H0V76L24.32 51.8343Z" fill="#2F5E9A"/>
  <path d="M80.4291 155C77.9899 155 76 153.241 76 151.084V146.061C76 130.963 89.833 118.731 106.907 118.731C109.347 118.731 111.337 120.491 111.337 122.648V127.671C111.337 142.769 97.4716 155 80.4291 155Z" fill="#3FB8D2"/>
  <path d="M147.571 155C150.01 155 152 153.241 152 151.084V146.061C152 130.963 138.167 118.731 121.092 118.731C118.653 118.731 116.663 120.491 116.663 122.648V127.671C116.663 142.769 130.528 155 147.571 155Z" fill="#FF692E"/>
  <path d="M80.4291 79C77.9899 79 76 80.7595 76 82.9163V87.9395C76 103.037 89.833 115.269 106.907 115.269C109.347 115.269 111.337 113.509 111.337 111.352V106.329C111.337 91.2599 97.4716 79 80.4291 79Z" fill="#2F5E9A"/>
  <path d="M147.571 79C150.01 79 152 80.7595 152 82.9163V87.9395C152 103.037 138.167 115.269 121.092 115.269C118.653 115.269 116.663 113.509 116.663 111.352V106.329C116.663 91.2599 130.528 79 147.571 79Z" fill="#FCAF45"/>
  <path d="M106.816 45.8547H88V64.6709H106.816V45.8547Z" fill="#CFF9FE"/>
  <path d="M140.134 45.8547H121.318V64.6709H140.134V45.8547Z" fill="#CFF9FE"/>
  <path d="M140.134 12H121.318V30.8161H140.134V12Z" fill="#CFF9FE"/>
</svg>
