<svg width="264" height="86" viewBox="0 0 264 86" fill="none" xmlns="http://www.w3.org/2000/svg">
<path d="M264 0H153.312V85.9756H264V0Z" fill="#FDF6E4"/>
<path d="M264 42.9265H153.312V86H264V42.9265Z" fill="#3FB8D2"/>
<path d="M76.6678 0H0V85.9756H76.6678V0Z" fill="#1A1C3D"/>
<path d="M153.312 0H76.644V85.9756H153.312V0Z" fill="#3A5485"/>
<path d="M180.881 79.5111C178.804 79.5111 177.117 77.8215 177.117 75.74V70.8915C177.117 56.2969 188.922 44.4695 203.488 44.4695C205.565 44.4695 207.252 46.1591 207.252 48.2406V53.0891C207.276 67.6836 195.447 79.5111 180.881 79.5111Z" fill="#1A1C3D"/>
<path d="M238.192 79.5111C240.269 79.5111 241.956 77.8215 241.956 75.74V70.8915C241.956 56.2969 230.151 44.4695 215.585 44.4695C213.508 44.4695 211.821 46.1591 211.821 48.2406V53.0891C211.821 67.6836 223.626 79.5111 238.192 79.5111Z" fill="#FDF6E4"/>
<path d="M180.881 6.04858C178.804 6.04858 177.117 7.73823 177.117 9.81966V14.6682C177.117 29.2627 188.922 41.0902 203.488 41.0902C205.565 41.0902 207.252 39.4005 207.252 37.3191V32.4706C207.276 17.876 195.447 6.04858 180.881 6.04858Z" fill="#3A5485"/>
<path d="M238.192 6.04858C240.269 6.04858 241.956 7.73823 241.956 9.81966V14.6682C241.956 29.2627 230.151 41.0902 215.585 41.0902C213.508 41.0902 211.821 39.4005 211.821 37.3191V32.4706C211.821 17.876 223.626 6.04858 238.192 6.04858Z" fill="#D0EFFF"/>
<path d="M119.485 42.9266C119.485 66.6304 100.3 85.8286 76.6424 85.8286C52.9846 85.8286 33.8237 66.6304 33.8237 42.9266C33.8237 19.2227 52.9846 0 76.6424 0C100.3 0 119.485 19.2227 119.485 42.9266Z" fill="#FFBA1A"/>
<path d="M119.487 42.9265C119.487 66.6304 100.302 85.8531 76.644 85.8531V0.0244374C100.302 -5.00457e-05 119.487 19.2226 119.487 42.9265Z" fill="#3FB8D2"/>
<path d="M119.487 42.9265C119.487 66.6304 100.302 85.8531 76.644 85.8531V42.9265H119.487Z" fill="#FDF6E4"/>
</svg>
