<svg width="2904" height="957" viewBox="0 0 2904 957" fill="none"
  xmlns="http://www.w3.org/2000/svg">
  <path fill-rule="evenodd" clip-rule="evenodd" d="M2844.5 15.8148C2806.68 36.3978 2748.65 63.7075 2729.48 69.9519L2714.26 74.9059L2647.23 55.5096C2610.38 44.8418 2578.66 36.1132 2576.76 36.1132C2573.62 36.1132 2564.48 49.9405 2566.36 51.8049C2566.79 52.2294 2593.18 61.9927 2625.02 73.5022C2662.04 86.8881 2689.25 98.2649 2700.49 105.066C2710.13 110.918 2719.8 115.705 2721.95 115.705C2724.1 115.705 2731.38 113.059 2738.13 109.825C2744.91 106.593 2764.55 97.8019 2781.79 90.2937C2820.02 73.6517 2857.09 55.3311 2883.91 39.8396L2904 28.2216L2890.01 14.0783C2882.32 6.29998 2875.44 -0.036024 2874.72 0.000154165C2874.02 0.0339205 2860.42 7.15138 2844.5 15.8148ZM2561.1 223.034C2553.82 228.885 2545.59 233.721 2542.85 233.781C2540.12 233.839 2529.8 231.743 2519.93 229.121C2499.24 223.615 2498.39 223.509 2498.39 226.398C2498.39 228.526 2539.42 245.947 2544.41 245.947C2547.4 245.947 2580.35 216.679 2580.37 213.989C2580.42 209.822 2573.55 213.049 2561.1 223.034ZM328.911 519.309C318.299 527.608 288.642 550.485 263.009 570.147L216.402 605.893L189.423 602.012C157.755 597.456 105.54 584.961 60.4763 571.15C42.8382 565.745 28.104 561.724 27.7302 562.216C25.8851 564.655 9.3372 605.273 9.3372 607.372C9.3372 615.55 128.542 646.406 187.141 653.395C221.076 657.442 226.045 655.969 242.518 636.98C250.146 628.189 276.503 602.767 301.09 580.489C325.677 558.213 349.868 536.216 354.846 531.61L363.9 523.233L357.54 513.627C354.045 508.342 350.514 504.064 349.694 504.119C348.877 504.175 339.523 511.012 328.911 519.309ZM448.403 841.652L418.643 877.801L408.749 876.357C390.865 873.742 355.794 865.725 335.797 859.681C324.994 856.413 315.226 853.745 314.09 853.75C312.957 853.755 309.857 858.873 307.204 865.124C304.551 871.376 302.055 877.237 301.655 878.144C299.561 882.917 373.832 901.607 402.929 903.628L423.886 905.084L500.746 831.011L491.115 818.257C485.818 811.243 480.739 805.503 479.825 805.503C478.911 805.503 464.77 821.771 448.403 841.652ZM0.140704 931.109C0.847385 938.052 2.30175 939.08 22.6025 946.971C34.5413 951.614 46.5839 955.963 49.3623 956.641C54.7119 957.943 103.4 935.016 103.4 931.193C103.4 930.043 101.724 927.708 99.6766 926.007C96.599 923.453 94.3969 923.767 87.0142 927.804C78.8096 932.292 70.6044 936.778 62.3985 941.263L46.7213 949.832L25.0144 936.839C13.0756 929.693 2.42475 923.81 1.34664 923.764C0.266122 923.721 -0.276551 927.025 0.140704 931.109Z" fill="black"/>
  <path d="M631.828 714.257C629.217 712.389 627.097 710.009 625.467 707.116C624.116 704.176 621.459 702.029 617.495 700.673C616.239 696.568 614.61 691.949 612.608 686.817C610.84 681.359 608.931 675.923 606.883 670.511C605.068 664.773 603.416 659.152 601.928 653.647C600.672 647.815 600.07 642.451 600.12 637.554C600.262 634.942 600.707 632.424 601.455 629.999C602.483 627.527 603.394 625.219 604.189 623.074C605.217 620.603 605.825 618.201 606.013 615.869C606.481 613.491 606.249 611.229 605.318 609.082C606.951 608.524 607.791 607.522 607.839 606.076C608.12 604.303 609.427 603.512 611.759 603.7C612.696 597.217 613.843 591.131 615.2 585.442C616.557 579.752 618.077 574.18 619.76 568.724C621.443 563.268 623.126 557.812 624.809 552.356C626.726 546.574 628.269 540.278 629.44 533.469C623.939 529.78 619.651 525.603 616.576 520.936C613.735 515.944 611.313 510.881 609.311 505.749C607.309 500.617 605.587 495.438 604.145 490.213C602.656 484.708 600.608 479.297 598 473.977C600.523 468.382 603.908 463.65 608.155 459.782C612.356 455.634 617.093 452.116 622.365 449.228C627.871 446.014 633.89 443.289 640.422 441.055C646.907 438.541 653.789 435.818 661.067 432.885C673.805 426.457 685.306 421.242 695.57 417.238C705.788 412.954 715.819 409.277 725.663 406.205C735.46 402.854 745.724 399.713 756.453 396.783C767.137 393.572 779.407 389.523 793.263 384.636C793.682 385.429 794.172 385.779 794.732 385.686C795.571 385.547 796.551 385.384 797.67 385.198C798.835 387.018 800.537 387.743 802.776 387.371C802.637 386.531 802.381 385.855 802.008 385.342C801.869 384.502 801.753 383.802 801.66 383.242C802.22 383.15 802.942 383.173 803.829 383.314C804.995 383.408 805.881 383.549 806.487 383.736C807.373 383.876 808.073 383.76 808.586 383.387C809.053 382.735 809.03 381.732 808.518 380.379C812.852 385.699 818.003 389.877 823.971 392.914C829.893 395.67 836.304 397.913 843.206 399.644C843.904 402.117 844.206 403.936 844.112 405.102C844.298 406.221 844.343 407.364 844.249 408.53C844.109 409.416 844.154 410.559 844.387 411.958C844.572 413.078 845.131 414.711 846.062 416.857C842.838 425.157 838.635 431.894 833.454 437.067C828.553 442.195 823.069 446.412 817.004 449.719C810.938 453.026 804.359 455.843 797.268 458.17C790.456 460.451 783.388 462.918 776.063 465.571C768.972 467.898 761.834 470.808 754.648 474.301C747.463 477.794 740.603 482.383 734.069 488.069C731.69 487.601 729.545 487.669 727.632 488.274C725.953 488.553 724.18 489.134 722.314 490.019C720.447 490.904 718.301 491.835 715.875 492.813C713.729 493.744 710.93 494.209 707.478 494.206C705.564 496.537 703.138 498.378 700.198 499.728C697.539 501.032 694.739 502.359 691.8 503.71C693.71 506.557 694.78 509.542 695.011 512.668C695.522 515.746 696.383 518.336 697.594 520.435C709.535 519.605 722.55 517.445 736.639 513.957C750.681 510.189 764.513 506.888 778.134 504.052C778.646 505.405 778.669 506.408 778.202 507.061C777.735 507.714 777.618 508.74 777.85 510.139C780.648 511.4 783.375 513.105 786.032 515.252C788.689 517.4 791.346 519.547 794.003 521.695C796.894 523.516 799.738 525.057 802.536 526.318C805.287 527.3 808.318 527.372 811.631 526.535C813.494 529.102 814.962 531.878 816.032 534.864C817.103 537.85 817.217 541.138 816.375 544.729C811.381 549.296 806.55 553.98 801.882 558.781C797.168 563.302 792.128 567.589 786.761 571.643C781.674 575.651 775.934 579.192 769.542 582.265C763.15 585.339 756.012 587.386 748.129 588.407C746.729 588.639 745.47 588.848 744.35 589.034C743.511 589.173 742.298 588.799 740.713 587.912C738.146 589.775 734.461 590.962 729.656 591.472C725.085 591.655 721.376 592.702 718.53 594.612C714.379 593.863 709.645 593.929 704.327 594.812C699.289 595.647 694.695 595.691 690.544 594.942C686.714 603.055 683.232 611.541 680.101 620.401C676.923 628.981 674.398 638.027 672.525 647.541C684.279 647.316 693.912 646.437 701.422 644.903C708.933 643.37 715.977 641.626 722.555 639.671C729.133 637.717 735.851 635.74 742.709 633.739C749.847 631.692 758.617 629.949 769.019 628.511C775.459 623.991 783.064 620.429 791.835 617.823C800.839 614.891 809.05 611.515 816.469 607.696C819.407 608.071 822.065 609.356 824.442 611.55C826.773 613.464 828.987 615.541 831.084 617.782C833.415 619.696 835.699 621.33 837.937 622.684C840.175 624.038 842.787 624.18 845.773 623.109C847.404 624.277 848.523 625.817 849.128 627.729C850.013 629.596 850.734 631.345 851.293 632.978C852.131 634.565 853.063 635.848 854.089 636.828C855.067 637.529 856.653 637.553 858.846 636.902C855.339 648.7 850.715 658.095 844.973 665.087C839.511 672.033 832.86 677.882 825.02 682.633C817.414 687.059 808.573 690.97 798.496 694.368C788.652 697.439 777.618 701.139 765.395 705.468C762.409 706.539 759.75 706.98 757.418 706.792C755.32 706.277 753.151 706.206 750.912 706.577C743.307 709.277 734.163 712.232 723.479 715.443C713.076 718.607 702.393 720.954 691.431 722.486C680.469 724.017 669.741 724.359 659.247 723.512C648.753 722.665 639.613 719.58 631.828 714.257Z" fill="black"/>
  <path d="M892.973 669.633C891.668 668.699 890.479 667.602 889.407 666.342C888.289 664.802 887.241 662.819 886.263 660.393C881.555 656.285 877.571 651.338 874.31 645.552C871.049 639.766 868.465 633.724 866.557 627.426C864.603 620.848 863.349 614.154 862.794 607.344C862.239 600.533 862.174 594.073 862.598 587.964C862.973 585.025 863.185 581.97 863.234 578.799C863.751 573.249 864.292 567.839 864.855 562.568C865.372 557.018 866.752 552.332 868.993 548.509C867.363 545.616 866.945 542.234 867.741 538.363C868.537 534.492 869.379 530.902 870.268 527.591C870.688 526.658 870.992 525.889 871.179 525.282C871.319 524.396 871.483 523.65 871.67 523.044C873.404 512.691 875.067 502.78 876.659 493.313C878.485 483.52 880.241 474.169 881.927 465.261C884.97 448.939 887.781 432.943 890.357 417.273C893.214 401.556 895.348 384.953 896.76 367.463C898.721 365.412 900.494 363.968 902.08 363.129C902.594 362.757 903.247 362.361 904.04 361.941C904.834 361.522 905.79 361.22 906.909 361.034C913.298 363.137 920.643 364.938 928.944 366.437C937.479 367.609 944.545 367.731 950.143 366.802L958.325 371.916C962.66 375.51 966.482 379.477 969.79 383.818C973.332 387.831 975.147 393.57 975.235 401.033C973.973 403.83 972.829 405.602 971.803 406.347C971.192 413.063 970.324 419.103 969.201 424.466C968.031 429.549 966.838 434.492 965.622 439.296C964.219 444.705 962.956 450.091 961.832 455.455C960.709 460.818 960.051 467.254 959.859 474.763C958.505 477.001 957.664 478.866 957.337 480.358C957.289 481.804 957.101 483.273 956.774 484.766C956.493 486.538 956.095 488.473 955.58 490.572C955.019 492.39 954.015 494.139 952.568 495.817C952.888 504.679 952.393 512.095 951.083 518.064C949.726 523.754 948.369 529.443 947.012 535.132C944.719 545.579 942.706 555.978 940.973 566.332C939.193 576.405 939.045 587.646 940.529 600.054C943.748 598.657 946.757 597.726 949.556 597.262C953.194 596.658 956.786 596.637 960.33 597.2C969.57 590.49 979.975 585.6 991.545 582.53C1003.39 579.413 1015.17 576.74 1026.88 574.51C1036.68 572.884 1045.7 570.955 1053.96 568.722C1057.09 570.217 1059.09 571.035 1059.98 571.175C1060.82 571.036 1062.22 570.804 1064.18 570.479C1065.02 570.34 1065.86 570.2 1066.69 570.061C1067.53 569.922 1068.68 569.876 1070.12 569.924C1074.69 573.192 1078.93 575.364 1082.85 576.439C1086.72 577.235 1090.87 577.984 1095.3 578.687C1099.17 579.483 1102.93 580.442 1106.57 581.564C1110.44 582.36 1114.26 583.738 1118.04 585.7L1125.37 606.484C1128.12 609.192 1129.45 611.128 1129.35 612.294C1129.72 614.533 1129.49 616.586 1128.65 618.451L1130.39 623.769C1125.26 625.771 1121.97 627.611 1120.52 629.289C1119.03 630.687 1117.47 632.529 1115.83 634.813C1112.8 635.604 1109.88 636.231 1107.09 636.695C1101.49 637.624 1095.89 639.416 1090.29 642.071C1081.38 640.385 1071.89 640.378 1061.81 642.05C1057.9 642.7 1053.86 643.513 1049.71 644.49C1045.84 645.42 1041.99 646.49 1038.16 647.7C1034.06 648.956 1029.95 650.213 1025.85 651.469C1021.69 652.445 1017.52 653.282 1013.32 653.979C1010.06 655.096 1007.75 655.91 1006.39 656.422C1005.04 656.934 1003.71 657.586 1002.4 658.378C993.399 663.036 983.554 667.833 972.869 672.769C962.464 677.659 951.664 681.033 940.469 682.891C923.955 685.63 909.964 683.638 898.495 676.913C896.957 674.58 895.839 673.04 895.14 672.293C894.441 671.546 893.718 670.66 892.973 669.633Z" fill="black"/>
  <path d="M1156.21 627.25C1153.6 625.382 1151.48 623.002 1149.85 620.109C1148.5 617.169 1145.85 615.022 1141.88 613.666C1140.63 609.561 1139 604.942 1136.99 599.81C1135.23 594.352 1133.32 588.916 1131.27 583.504C1129.45 577.766 1127.8 572.144 1126.31 566.64C1125.06 560.808 1124.46 555.444 1124.51 550.547C1124.65 547.935 1125.09 545.416 1125.84 542.992C1126.87 540.52 1127.78 538.212 1128.58 536.067C1129.6 533.596 1130.21 531.194 1130.4 528.862C1130.87 526.484 1130.64 524.221 1129.7 522.075C1131.34 521.517 1132.18 520.514 1132.23 519.069C1132.51 517.296 1133.81 516.504 1136.15 516.693C1137.08 510.21 1138.23 504.124 1139.59 498.435C1140.94 492.745 1142.46 487.173 1144.15 481.717C1145.83 476.261 1147.51 470.805 1149.2 465.349C1151.11 459.567 1152.66 453.271 1153.83 446.462C1148.33 442.773 1144.04 438.596 1140.96 433.929C1138.12 428.936 1135.7 423.874 1133.7 418.742C1131.7 413.61 1129.97 408.431 1128.53 403.206C1127.04 397.701 1124.99 392.289 1122.39 386.97C1124.91 381.375 1128.29 376.643 1132.54 372.775C1136.74 368.627 1141.48 365.109 1146.75 362.221C1152.26 359.007 1158.28 356.282 1164.81 354.048C1171.29 351.534 1178.18 348.811 1185.45 345.877C1198.19 339.45 1209.69 334.234 1219.96 330.231C1230.17 325.947 1240.21 322.269 1250.05 319.198C1259.85 315.847 1270.11 312.706 1280.84 309.775C1291.52 306.565 1303.79 302.516 1317.65 297.628C1318.07 298.422 1318.56 298.772 1319.12 298.679C1319.96 298.54 1320.94 298.377 1322.06 298.191C1323.22 300.011 1324.92 300.735 1327.16 300.364C1327.02 299.524 1326.77 298.848 1326.39 298.334C1326.26 297.495 1326.14 296.795 1326.05 296.235C1326.61 296.142 1327.33 296.166 1328.22 296.307C1329.38 296.401 1330.27 296.542 1330.87 296.729C1331.76 296.869 1332.46 296.753 1332.97 296.38C1333.44 295.728 1333.42 294.725 1332.91 293.372C1337.24 298.692 1342.39 302.87 1348.36 305.906C1354.28 308.663 1360.69 310.906 1367.59 312.637C1368.29 315.109 1368.59 316.929 1368.5 318.095C1368.68 319.214 1368.73 320.357 1368.64 321.523C1368.5 322.409 1368.54 323.552 1368.77 324.951C1368.96 326.071 1369.52 327.704 1370.45 329.85C1367.22 338.15 1363.02 344.887 1357.84 350.06C1352.94 355.187 1347.46 359.405 1341.39 362.712C1335.32 366.019 1328.75 368.836 1321.65 371.163C1314.84 373.444 1307.77 375.911 1300.45 378.564C1293.36 380.891 1286.22 383.801 1279.04 387.294C1271.85 390.787 1264.99 395.376 1258.46 401.062C1256.08 400.594 1253.93 400.662 1252.02 401.267C1250.34 401.546 1248.57 402.127 1246.7 403.012C1244.83 403.897 1242.69 404.828 1240.26 405.806C1238.12 406.737 1235.32 407.202 1231.87 407.199C1229.95 409.53 1227.52 411.371 1224.58 412.721C1221.93 414.025 1219.13 415.352 1216.19 416.703C1218.1 419.549 1219.17 422.535 1219.4 425.661C1219.91 428.739 1220.77 431.329 1221.98 433.428C1233.92 432.597 1246.94 430.438 1261.03 426.95C1275.07 423.182 1288.9 419.881 1302.52 417.045C1303.03 418.398 1303.06 419.401 1302.59 420.054C1302.12 420.706 1302 421.732 1302.24 423.132C1305.03 424.393 1307.76 426.098 1310.42 428.245C1313.08 430.393 1315.73 432.54 1318.39 434.688C1321.28 436.509 1324.12 438.05 1326.92 439.311C1329.67 440.293 1332.71 440.365 1336.02 439.528C1337.88 442.095 1339.35 444.871 1340.42 447.857C1341.49 450.843 1341.6 454.131 1340.76 457.722C1335.77 462.289 1330.94 466.973 1326.27 471.774C1321.56 476.295 1316.51 480.582 1311.15 484.636C1306.06 488.644 1300.32 492.185 1293.93 495.258C1287.54 498.332 1280.4 500.379 1272.52 501.4C1271.12 501.632 1269.86 501.841 1268.74 502.027C1267.9 502.166 1266.69 501.792 1265.1 500.904C1262.53 502.768 1258.85 503.955 1254.04 504.465C1249.47 504.648 1245.76 505.695 1242.92 507.605C1238.77 506.856 1234.03 506.922 1228.71 507.805C1223.68 508.64 1219.08 508.684 1214.93 507.934C1211.1 516.047 1207.62 524.534 1204.49 533.394C1201.31 541.974 1198.78 551.02 1196.91 560.534C1208.67 560.309 1218.3 559.43 1225.81 557.896C1233.32 556.363 1240.36 554.619 1246.94 552.664C1253.52 550.71 1260.24 548.733 1267.1 546.732C1274.23 544.685 1283 542.942 1293.41 541.504C1299.85 536.984 1307.45 533.422 1316.22 530.816C1325.23 527.884 1333.44 524.508 1340.86 520.689C1343.79 521.064 1346.45 522.349 1348.83 524.543C1351.16 526.457 1353.37 528.534 1355.47 530.774C1357.8 532.689 1360.09 534.323 1362.32 535.677C1364.56 537.031 1367.17 537.173 1370.16 536.102C1371.79 537.27 1372.91 538.81 1373.51 540.722C1374.4 542.589 1375.12 544.338 1375.68 545.971C1376.52 547.558 1377.45 548.841 1378.48 549.821C1379.45 550.522 1381.04 550.546 1383.23 549.895C1379.73 561.693 1375.1 571.088 1369.36 578.08C1363.9 585.026 1357.25 590.874 1349.41 595.626C1341.8 600.052 1332.96 603.963 1322.88 607.361C1313.04 610.432 1302.01 614.132 1289.78 618.461C1286.8 619.532 1284.14 619.973 1281.8 619.785C1279.71 619.27 1277.54 619.198 1275.3 619.57C1267.69 622.27 1258.55 625.225 1247.87 628.436C1237.46 631.6 1226.78 633.947 1215.82 635.479C1204.86 637.01 1194.13 637.352 1183.63 636.505C1173.14 635.658 1164 632.573 1156.21 627.25Z" fill="black"/>
  <path d="M1402.98 438.77C1400.28 431.166 1398.52 423.119 1397.68 414.629C1396.85 406.14 1395.78 397.977 1394.48 390.14C1393.23 382.583 1391.34 374.699 1388.83 366.488C1386.55 357.951 1384.34 349.833 1382.2 342.136C1380.34 334.392 1378.88 327.301 1377.81 320.864C1376.98 314.1 1377.1 308.759 1378.17 304.842C1379.71 300.272 1381.98 296.589 1384.97 293.793C1387.91 290.717 1390.66 287.384 1393.23 283.794C1396.96 283.75 1400.36 284.336 1403.44 285.551C1406.75 286.439 1409.6 287.98 1411.97 290.174C1414.59 292.042 1416.52 294.166 1417.78 296.545C1419.31 298.879 1420.01 301.351 1419.87 303.963C1427.56 307 1434.11 311.809 1439.52 318.39C1445.16 324.644 1449.82 331.923 1453.5 340.228C1457.41 348.207 1460.57 356.885 1462.99 366.262C1465.69 375.592 1468.09 384.829 1470.18 393.973C1472.55 403.07 1474.71 411.77 1476.67 420.074C1478.85 428.051 1481.44 434.956 1484.42 440.789C1493.76 420.832 1501.49 403.3 1507.61 388.193C1513.97 372.759 1520.44 358.024 1527.03 343.99C1533.57 329.675 1541.06 315.058 1549.52 300.139C1558.25 285.173 1569.64 268.04 1583.7 248.741C1587.43 248.697 1590.34 248.932 1592.44 249.447C1594.54 249.961 1596.64 250.476 1598.74 250.99C1600.83 251.505 1603.05 251.856 1605.38 252.045C1607.67 251.953 1610.72 251.302 1614.55 250.092C1616.5 253.219 1617.9 255.575 1618.74 257.162C1619.81 258.422 1620.74 259.705 1621.54 261.012C1622.33 262.318 1623.33 264.021 1624.54 266.121C1625.75 268.221 1627.57 271.371 1629.99 275.57C1631.02 276.55 1631.55 278.043 1631.6 280.049C1631.88 281.728 1631.99 283.291 1631.94 284.737C1631.9 286.183 1631.94 287.325 1632.08 288.165C1632.5 288.958 1633.48 288.796 1635.02 287.677C1634.69 292.621 1633.59 297.261 1631.72 301.598C1629.81 305.654 1629.43 310.318 1630.59 315.59C1624.71 326.92 1618.03 338.669 1610.56 350.837C1603.09 363.005 1595.71 375.733 1588.42 389.021C1581.09 402.029 1574.13 415.55 1567.54 429.585C1561.19 443.293 1556.23 457.632 1552.68 472.601C1551 472.88 1549.81 473.509 1549.11 474.488C1548.41 475.467 1547.73 476.586 1547.08 477.845C1546.7 479.057 1546.19 480.293 1545.54 481.552C1545.16 482.764 1544.14 483.51 1542.46 483.788C1543.38 492.837 1541.44 501.931 1536.63 511.07C1532.05 519.882 1527.15 527.598 1521.92 534.217C1522.85 536.363 1523.43 538.136 1523.67 539.536C1523.9 540.935 1523.99 542.358 1523.94 543.804C1523.89 545.249 1523.87 546.835 1523.87 548.561C1524.1 549.96 1524.54 551.756 1525.19 553.949C1523.79 561.084 1521.36 567.239 1517.9 572.414C1514.73 577.543 1510.95 581.621 1506.56 584.65C1502.18 587.678 1497.42 589.331 1492.29 589.607C1487.2 590.163 1482.16 589.273 1477.18 586.937C1475.03 586.143 1473.1 584.882 1471.37 583.155C1469.65 581.428 1467.81 579.864 1465.85 578.463C1464.12 576.736 1462.3 575.312 1460.39 574.192C1458.72 572.744 1456.71 571.927 1454.38 571.739C1454.47 568.847 1453.99 565.908 1452.92 562.922C1452.12 559.89 1451.1 557.184 1449.84 554.804C1448.59 552.424 1447.26 550.488 1445.86 548.994C1444.46 547.501 1443.2 546.847 1442.08 547.032C1439.8 540.221 1437.01 532.919 1433.7 525.128C1430.63 517.01 1427.44 509.055 1424.14 501.263C1421.11 493.425 1418.39 485.681 1415.97 478.029C1413.55 470.378 1411.92 463.171 1411.08 456.407C1410.81 453.002 1409.62 450.179 1407.52 447.939C1405.66 445.372 1404.14 442.316 1402.98 438.77Z" fill="black"/>
  <path d="M1607.92 525.987L1612.68 520.883L1611.64 511.997C1615.8 493.763 1620.22 476.205 1624.9 459.324C1629.86 442.397 1635.02 425.003 1640.4 407.143C1642.04 401.407 1643.67 395.671 1645.31 389.935C1647.23 384.153 1648.98 378.254 1650.57 372.238C1650.1 371.165 1649.78 370.069 1649.59 368.949C1649.36 367.55 1649.38 365.964 1649.67 364.192C1652.66 357.944 1654.9 352.395 1656.39 347.545C1658.17 342.649 1659.78 337.636 1661.23 332.507C1662.82 326.491 1664.55 320.452 1666.42 314.39C1668.57 308.281 1671.45 302.197 1675.04 296.136L1677.28 291.45L1681.97 291.103C1683 290.358 1684.05 289.752 1685.12 289.287C1686.43 288.495 1688.06 287.936 1690.02 287.611L1697.79 287.617C1706.33 281.886 1713.44 274.521 1719.14 265.524C1725.07 256.199 1730.75 245.336 1736.17 232.933L1740.02 224.96L1747.43 228.044C1748.97 228.651 1751.35 229.119 1754.57 229.448C1757.79 229.777 1761.17 230.223 1764.71 230.785C1770.82 231.209 1776.84 231.936 1782.76 232.967C1788.64 233.717 1793.37 235.377 1796.96 237.944L1799.69 241.375C1800.76 244.361 1801.64 247.09 1802.34 249.562C1803.32 251.988 1804.29 254.415 1805.27 256.841C1807.37 262.533 1809.32 268.248 1811.14 273.986C1812.91 279.444 1814.51 285.649 1815.95 292.6C1818.28 297.965 1820.49 303.494 1822.59 309.186C1824.91 314.552 1827.1 319.94 1829.15 325.352C1831.9 333.237 1834.74 340.818 1837.67 348.097C1840.56 355.095 1843.96 361.721 1847.87 367.974C1850.67 367.509 1852.37 367.371 1852.98 367.558C1856.1 365.601 1859.88 364.111 1864.31 363.088L1869.7 361.763L1872.22 366.522C1872.92 367.269 1873.76 367.992 1874.73 368.693C1875.71 369.393 1876.83 370.07 1878.09 370.724C1882.62 370.261 1886 370.707 1888.24 372.061C1890.71 373.089 1892.76 374.186 1894.39 375.354C1895.04 375.82 1895.86 376.404 1896.84 377.104C1897.77 377.525 1898.54 377.829 1899.15 378.016L1907.19 379.701L1904.32 388.374C1902.21 394.762 1898.41 401.29 1892.9 407.956C1887.67 414.575 1881.44 420.354 1874.2 425.293C1875.09 427.159 1875.67 428.932 1875.95 430.611C1876.51 432.244 1877.25 434.134 1878.18 436.28C1880.23 441.692 1882.05 447.43 1883.63 453.495C1885.44 459.233 1886.47 465.391 1886.69 471.968C1885.1 479.709 1882.84 486.844 1879.89 493.372C1877.18 499.573 1873.56 505.494 1869.03 511.134C1864.74 516.449 1859.63 521.179 1853.7 525.326C1847.73 529.193 1841.27 531.847 1834.32 533.288C1830.26 533.098 1827.16 532.606 1825.01 531.812C1823.15 530.971 1821.42 530.107 1819.84 529.219C1817.32 527.912 1815.31 527.094 1813.82 526.766L1807.95 525.153L1808.58 518.577C1809.05 516.198 1808.58 514.262 1807.19 512.769C1806.07 511.229 1803.74 509.315 1800.19 507.027C1798.93 506.373 1797.82 505.696 1796.84 504.995C1795.81 504.015 1794.65 503.058 1793.34 502.124L1783.34 493.861L1796.57 487.784C1804.59 484.152 1809.73 480.424 1811.97 476.601C1814.16 472.498 1814.24 466.015 1812.19 457.151C1804.96 456.913 1799.2 457.725 1794.91 459.588C1790.57 461.17 1786.26 462.893 1781.96 464.755C1775.8 467.503 1769.76 470.087 1763.84 472.508C1757.87 474.649 1751.24 476.324 1743.96 477.531C1739.21 478.321 1734.1 478.737 1728.64 478.779L1723.95 479.126L1721.93 474.717C1721.83 474.157 1721.32 473.667 1720.39 473.246C1719.69 472.5 1719.01 471.893 1718.36 471.426C1716.68 469.979 1714.63 468.018 1712.21 465.544C1709.79 463.071 1708.79 459.642 1709.21 455.258C1706.74 452.504 1705.08 449.471 1704.25 446.159C1703.5 448.584 1702.89 450.985 1702.42 453.364C1702.19 455.416 1701.95 457.468 1701.72 459.52L1700.95 465.256L1695.63 467.002C1695.16 467.654 1694.74 468.587 1694.37 469.799C1694.27 470.965 1694.41 471.805 1694.78 472.318L1697.23 476.658L1693.66 481.133C1693.24 482.065 1692.65 482.881 1691.91 483.58C1691.16 484.279 1690.55 484.955 1690.09 485.608C1690.04 488.78 1689.69 491.858 1689.03 494.842C1688.66 497.781 1688.14 500.742 1687.48 503.727C1686.83 508.437 1686.15 513.007 1685.45 517.438C1685.02 521.822 1685.16 526.113 1685.86 530.312L1685.08 536.048C1684.05 538.519 1682.51 540.501 1680.46 541.992C1678.69 543.436 1676.89 544.741 1675.07 545.906C1672.46 547.49 1670.68 548.934 1669.75 550.24L1669.4 555.906L1663.24 557.791C1659.74 559.234 1657.17 560.235 1655.54 560.794C1654.19 561.306 1652.53 561.724 1650.57 562.049L1645.04 562.535C1641.13 559.734 1637.91 557.679 1635.39 556.371C1633.11 554.737 1630.45 553.453 1627.42 552.518L1624.34 549.577C1622.85 547.524 1621.83 545.68 1621.27 544.048C1620.66 542.135 1619.92 540.245 1619.04 538.379C1617.87 534.833 1616.61 532.454 1615.26 531.24L1607.92 525.987ZM1723.73 394.61C1720.75 400.858 1717.94 407.362 1715.33 414.123C1717.24 413.519 1719.03 413.077 1720.71 412.798C1722.67 412.473 1724.61 412.008 1726.52 411.403C1736.22 409.218 1745.2 407.009 1753.46 404.776C1761.72 402.543 1770.58 399.634 1780.05 396.05C1776.1 386.065 1771.84 375.988 1767.27 365.816C1762.94 355.319 1758.33 344.867 1753.44 334.463L1752.04 339.009C1746.3 347.727 1740.93 356.958 1735.93 366.703C1730.93 376.448 1726.98 385.587 1724.09 394.12L1723.73 394.61Z" fill="black"/>
  <path d="M1867.25 280.637C1866.6 278.444 1865.71 276.578 1864.6 275.038C1863.71 273.171 1862.66 271.188 1861.45 269.089C1859.5 265.962 1857.63 262.533 1855.86 258.8C1854.09 255.067 1852.77 250.542 1851.89 245.224C1851.98 242.332 1852.36 240.257 1853.01 238.998C1853.62 237.459 1854.27 236.201 1854.97 235.222L1855.4 227.386L1861.69 226.341C1863.98 226.249 1866.24 226.018 1868.48 225.646C1871 225.228 1873.38 224.834 1875.62 224.462C1886.25 222.697 1897.1 220.466 1908.16 217.769C1919.21 215.072 1930.52 212.188 1942.09 209.118C1954.69 205.303 1968.34 201.745 1983.03 198.444C1983.92 195.133 1984.43 193.034 1984.57 192.148C1984.99 191.215 1985.39 190.143 1985.77 188.931L1989.97 185.645C1996.36 184.297 2000.97 184.394 2003.82 185.935C2006.62 187.197 2008.85 188.551 2010.53 189.998C2017.72 188.231 2025.02 186.3 2032.44 184.207C2039.81 181.833 2047.46 179.414 2055.39 176.947C2066.35 173.69 2077.46 170.41 2088.7 167.107C2099.94 163.803 2111.02 161.246 2121.94 159.435C2126.69 158.645 2131.2 158.042 2135.44 157.625C2139.69 157.209 2143.81 156.955 2147.82 156.865L2153.49 159.807C2154.93 161.581 2156.64 163.168 2158.59 164.569C2160.55 165.969 2162.79 167.324 2165.31 168.631C2170.06 171.293 2174.82 174.818 2179.57 179.206C2184.61 183.548 2187.38 190.709 2187.88 200.691L2186.48 205.238C2185.55 206.543 2184.33 207.895 2182.84 209.293L2179.55 215.447L2174.93 216.214C2172.13 216.678 2170.08 217.306 2168.77 218.098C2167.42 218.61 2165.83 219.449 2164.01 220.613C2162.98 221.359 2161.82 222.128 2160.51 222.92C2159.16 223.432 2157.69 224.107 2156.1 224.945C2152.98 225.176 2150.57 225.431 2148.89 225.71C2147.21 225.988 2145.26 226.313 2143.02 226.685C2134.62 228.078 2125.62 230.147 2116.01 232.892C2106.4 235.637 2097.09 238.475 2088.08 241.407C2081.51 243.362 2075.21 245.269 2069.19 247.131C2063.13 248.712 2057.62 250.201 2052.68 251.596C2051.08 259.338 2049.63 266.193 2048.32 272.163C2047.01 278.132 2045.56 284.124 2043.97 290.14C2042.38 296.156 2040.96 302.288 2039.69 308.537C2038.38 314.507 2037.33 321.152 2036.53 328.475C2034.01 334.07 2032.02 339.432 2030.57 344.562C2029.07 349.412 2028.11 354.891 2027.69 361.001C2024.28 366.456 2022.06 372.145 2021.03 378.068C2020.28 383.944 2019.53 388.958 2018.78 393.108L2018.15 399.684C2016.51 401.969 2015.51 403.717 2015.13 404.929C2015.04 406.095 2014.55 407.471 2013.66 409.056C2013.43 412.834 2012.89 416.518 2012.04 420.109C2011.72 421.602 2011.41 423.234 2011.13 425.006C2010.8 426.498 2010.85 427.641 2011.27 428.434C2011.22 431.606 2010.78 434.124 2009.93 435.989C2010.21 437.669 2010.35 439.371 2010.35 441.097C2010.35 442.823 2010.35 444.549 2010.35 446.274C2010.11 448.326 2009.99 450.215 2009.99 451.941C2009.94 453.387 2010.32 454.763 2011.11 456.07C2012.13 457.05 2013.16 458.03 2014.19 459.01C2015.21 459.991 2016.14 461.274 2016.98 462.861C2017.63 463.327 2018.4 463.631 2019.29 463.772C2020.18 463.912 2020.94 464.216 2021.6 464.683C2024.16 466.271 2026.45 467.042 2028.45 466.997L2033.49 471.338C2036.84 481.135 2036.6 489.228 2032.77 495.615C2028.8 502.888 2020.94 507.5 2009.18 509.451L2003.23 510.006C2000.95 508.372 1999.62 507.298 1999.25 506.785C1996.54 506.083 1994.28 505.452 1992.46 504.891C1990.69 504.61 1988.94 503.606 1987.22 501.879C1986.57 501.412 1985.82 501.248 1984.98 501.387C1984.09 501.247 1983.32 500.943 1982.67 500.476C1979.73 500.101 1977.33 499.493 1975.47 498.652L1970.43 496.899C1970.25 494.054 1970.06 492.071 1969.88 490.952C1967.13 488.244 1964.75 485.188 1962.75 481.781C1961.02 478.329 1959.42 474.713 1957.93 470.933C1956.58 467.994 1955.27 465.334 1954.01 462.955C1953.04 460.529 1951.68 458.452 1949.96 456.725C1946.15 437.226 1945.25 420.551 1947.27 406.699C1949.24 392.568 1951.7 378.787 1954.64 365.356C1956.33 358.174 1957.85 350.876 1959.21 343.461C1960.57 336.046 1961.62 328.537 1962.37 320.935L1966.22 315.55C1967.9 313.546 1969 312.357 1969.52 311.985C1968.91 308.346 1969.03 304.731 1969.87 301.141C1970.67 297.27 1971.6 293.376 1972.68 289.459C1973.43 287.034 1974.04 284.632 1974.5 282.254C1975.25 279.829 1975.63 277.754 1975.63 276.028C1973.67 276.353 1971.87 276.795 1970.24 277.353C1968.84 277.585 1967.32 277.981 1965.69 278.539C1962.19 279.983 1958.76 280.983 1955.4 281.54C1952.89 281.958 1951.04 282.12 1949.88 282.026C1947.82 283.517 1945.84 284.565 1943.93 285.17C1941.97 285.495 1940.01 285.82 1938.05 286.145L1927.97 287.817C1924.62 288.374 1922.03 289.235 1920.21 290.4C1916.29 291.05 1913.77 291.468 1912.65 291.654C1911.53 291.84 1910.27 292.049 1908.87 292.281L1898.8 293.953C1896.56 294.324 1894.01 294.602 1891.17 294.787C1888.28 294.691 1885.15 294.059 1881.79 292.891L1878.3 290.02C1876.11 287.22 1874.29 285.796 1872.84 285.748L1868.02 285.255L1867.25 280.637Z" fill="black"/>
  <path d="M2170.98 458.878C2168.37 457.01 2166.25 454.63 2164.62 451.737C2163.27 448.798 2160.61 446.65 2156.65 445.295C2155.39 441.189 2153.76 436.57 2151.76 431.438C2149.99 425.98 2148.09 420.545 2146.04 415.133C2144.22 409.394 2142.57 403.773 2141.08 398.268C2139.83 392.437 2139.22 387.072 2139.27 382.175C2139.42 379.563 2139.86 377.045 2140.61 374.62C2141.64 372.148 2142.55 369.84 2143.34 367.695C2144.37 365.224 2144.98 362.822 2145.17 360.49C2145.63 358.112 2145.4 355.85 2144.47 353.703C2146.11 353.145 2146.95 352.143 2146.99 350.697C2147.27 348.925 2148.58 348.133 2150.91 348.321C2151.85 341.838 2153 335.752 2154.35 330.063C2155.71 324.374 2157.23 318.801 2158.91 313.345C2160.6 307.889 2162.28 302.433 2163.96 296.977C2165.88 291.195 2167.42 284.899 2168.59 278.09C2163.09 274.402 2158.81 270.224 2155.73 265.558C2152.89 260.565 2150.47 255.502 2148.47 250.37C2146.46 245.238 2144.74 240.06 2143.3 234.835C2141.81 229.33 2139.76 223.918 2137.15 218.599C2139.68 213.003 2143.06 208.272 2147.31 204.403C2151.51 200.255 2156.25 196.737 2161.52 193.849C2167.03 190.635 2173.04 187.911 2179.58 185.676C2186.06 183.162 2192.94 180.439 2200.22 177.506C2212.96 171.078 2224.46 165.863 2234.72 161.859C2244.94 157.575 2254.97 153.898 2264.82 150.826C2274.61 147.475 2284.88 144.334 2295.61 141.404C2306.29 138.193 2318.56 134.144 2332.42 129.257C2332.84 130.05 2333.33 130.4 2333.89 130.307C2334.73 130.168 2335.7 130.005 2336.82 129.82C2337.99 131.64 2339.69 132.364 2341.93 131.992C2341.79 131.153 2341.53 130.476 2341.16 129.963C2341.02 129.123 2340.91 128.423 2340.81 127.864C2341.37 127.771 2342.1 127.794 2342.98 127.935C2344.15 128.029 2345.03 128.17 2345.64 128.357C2346.53 128.497 2347.23 128.381 2347.74 128.008C2348.21 127.356 2348.18 126.353 2347.67 125C2352.01 130.32 2357.16 134.499 2363.12 137.535C2369.05 140.291 2375.46 142.534 2382.36 144.265C2383.06 146.738 2383.36 148.557 2383.27 149.723C2383.45 150.842 2383.5 151.985 2383.4 153.151C2383.26 154.037 2383.31 155.18 2383.54 156.58C2383.73 157.699 2384.29 159.332 2385.22 161.478C2381.99 169.778 2377.79 176.515 2372.61 181.689C2367.71 186.816 2362.22 191.033 2356.16 194.34C2350.09 197.647 2343.51 200.464 2336.42 202.791C2329.61 205.072 2322.54 207.539 2315.22 210.192C2308.13 212.519 2300.99 215.429 2293.8 218.922C2286.62 222.415 2279.76 227.004 2273.22 232.69C2270.84 232.222 2268.7 232.29 2266.79 232.895C2265.11 233.174 2263.33 233.756 2261.47 234.64C2259.6 235.525 2257.46 236.457 2255.03 237.434C2252.88 238.366 2250.08 238.83 2246.63 238.827C2244.72 241.158 2242.29 242.999 2239.35 244.349C2236.69 245.653 2233.89 246.981 2230.95 248.331C2232.86 251.178 2233.93 254.164 2234.17 257.289C2234.68 260.368 2235.54 262.957 2236.75 265.057C2248.69 264.226 2261.7 262.066 2275.79 258.578C2289.83 254.81 2303.67 251.509 2317.29 248.674C2317.8 250.027 2317.82 251.029 2317.36 251.682C2316.89 252.335 2316.77 253.361 2317 254.76C2319.8 256.022 2322.53 257.726 2325.19 259.873C2327.84 262.021 2330.5 264.168 2333.16 266.316C2336.05 268.137 2338.89 269.678 2341.69 270.94C2344.44 271.921 2347.47 271.993 2350.78 271.156C2352.65 273.723 2354.12 276.499 2355.19 279.485C2356.26 282.471 2356.37 285.759 2355.53 289.35C2350.53 293.917 2345.7 298.601 2341.04 303.402C2336.32 307.923 2331.28 312.211 2325.91 316.265C2320.83 320.272 2315.09 323.813 2308.7 326.887C2302.3 329.96 2295.17 332.007 2287.28 333.028C2285.88 333.26 2284.62 333.469 2283.5 333.655C2282.66 333.794 2281.45 333.42 2279.87 332.533C2277.3 334.397 2273.61 335.583 2268.81 336.093C2264.24 336.276 2260.53 337.323 2257.68 339.233C2253.53 338.484 2248.8 338.55 2243.48 339.433C2238.44 340.269 2233.85 340.312 2229.7 339.563C2225.87 347.676 2222.39 356.162 2219.25 365.022C2216.08 373.602 2213.55 382.649 2211.68 392.162C2223.43 391.938 2233.07 391.058 2240.58 389.525C2248.09 387.991 2255.13 386.247 2261.71 384.293C2268.29 382.338 2275 380.361 2281.86 378.36C2289 376.313 2297.77 374.57 2308.17 373.132C2314.61 368.612 2322.22 365.05 2330.99 362.444C2339.99 359.512 2348.2 356.137 2355.62 352.317C2358.56 352.693 2361.22 353.977 2363.6 356.171C2365.93 358.085 2368.14 360.162 2370.24 362.403C2372.57 364.317 2374.85 365.951 2377.09 367.305C2379.33 368.659 2381.94 368.801 2384.93 367.731C2386.56 368.898 2387.68 370.438 2388.28 372.351C2389.17 374.217 2389.89 375.967 2390.45 377.599C2391.28 379.186 2392.22 380.469 2393.24 381.449C2394.22 382.15 2395.81 382.174 2398 381.523C2394.49 393.321 2389.87 402.716 2384.13 409.708C2378.66 416.654 2372.01 422.503 2364.17 427.255C2356.57 431.68 2347.73 435.592 2337.65 438.989C2327.81 442.06 2316.77 445.76 2304.55 450.089C2301.56 451.16 2298.9 451.601 2296.57 451.413C2294.47 450.898 2292.3 450.827 2290.07 451.198C2282.46 453.898 2273.32 456.853 2262.63 460.064C2252.23 463.228 2241.55 465.576 2230.58 467.107C2219.62 468.638 2208.9 468.98 2198.4 468.133C2187.91 467.286 2178.77 464.201 2170.98 458.878Z" fill="black"/>
</svg>
