<svg width="241" height="238" viewBox="0 0 241 238" fill="none" xmlns="http://www.w3.org/2000/svg">
<path d="M133.5 39H165H206.5C218.514 36.7832 223.633 32.5392 232.5 24.5C237.734 15.5645 238.951 10.3764 240 1V237.5H1C9.50275 237.242 12.9283 236.446 18 234.5C26.9901 229.7 30.4287 225.638 35.5 217.5C38.2905 210.613 38.7574 206.341 39 198.5V136C39.6077 122.029 41.1459 114.656 46 102.5C54.8676 82.8314 61.1524 74.1536 74.5 62.5C83.3903 55.0566 88.4104 51.4963 97.5 47.5C111.102 41.987 118.978 39.9055 133.5 39Z" fill="white" stroke="white"/>
</svg>
