<svg xmlns="http://www.w3.org/2000/svg" width="223" height="210" fill="none"><path fill="#635BFF" d="M222 104.6c0 57.8-46.9 104.7-104.6 104.7h-50c-13.1 0-23.8-10.1-24.8-23-.0667-.6-.1-1.233-.1-1.9 0-13.8 11.2-24.9 24.9-24.9h50c30.2 0 54.8-24.6 54.8-54.9 0-30.2-24.6-54.8-54.8-54.8h-50c-13.7 0-24.9-11.2-24.9-24.9 0-.6667.0333-1.3.1-1.9 1-12.9 11.7-23 24.8-23h50C175.1 0 222 46.9 222 104.6Z"/><path fill="url(#a)" d="M44.3 54.5c-1.1334-.8667-2.1667-1.8667-3.1-3 .6.5333 1.2 1.0667 1.8 1.6l1.3 1.4Z"/><path fill="#635BFF" d="M43 156.2c-.6.6-1.2 1.133-1.8 1.6.9333-1.133 2-2.133 3.2-3l-1.4 1.4Z"/><path fill="#635BFF" d="M186.2 104.6c0 48.3-39.2 87.5-87.4 87.5H57c-5.6 0-10.7-2.2-14.4-5.8-.0667-.6-.1-1.233-.1-1.9 0-13.8 11.2-24.9 24.9-24.9h50c30.2 0 54.8-24.6 54.8-54.9 0-30.2001-24.6-54.8001-54.8-54.8001h-50c-13.7 0-24.9-11.2-24.9-24.8999 0-.6667.0333-1.3.1-1.9 3.7-3.6 8.8-5.8 14.4-5.8h41.8c48.2 0 87.4 39.1999 87.4 87.4Z"/><path fill="#635BFF" d="M84.2 104.6c0 6.7-2.6 13-7.3 17.7L43 156.2c-.6.6-1.2 1.133-1.8 1.6-1.4667 1.267-3.0667 2.3-4.8 3.1-3.4 1.7-7.2 2.6-11 2.6-6.4 0-12.8-2.4-17.70001-7.3-9.7-9.7-9.7-25.5 0-35.2L24.1 104.6 7.69999 88.3c-9.7-9.7-9.7-25.5 0-35.2C15.5 45.3 27.1 43.8 36.4 48.4c1.7333.8666 3.3333 1.9 4.8 3.1.6.5333 1.2 1.0666 1.8 1.6l1.3 1.4L76.9 87c4.7 4.7 7.3 11 7.3 17.6Z"/><path fill="#635BFF" d="M84.2 104.6c0 6.7-2.6 13-7.3 17.7L43 156.2c-.6.6-1.2 1.133-1.8 1.6-1.4667 1.267-3.0667 2.3-4.8 3.1-2.3-1.2-4.6-2.7-6.5-4.7-9.7-9.7-9.7-25.5 0-35.2l16.3-16.4-16.3-16.3c-9.7-9.7-9.7-25.5 0-35.2 1.9-2 4.2-3.5 6.5-4.7 1.7333.8667 3.3333 1.9 4.8 3.1.6.5334 1.2 1.0667 1.8 1.6l1.3 1.4L76.9 87c4.7 4.7 7.3 11 7.3 17.6Z"/><defs><linearGradient id="a" x1="40.421" x2="41.7964" y1="53.975" y2="50.4912" gradientUnits="userSpaceOnUse"><stop stop-color="#96589C"/><stop offset="1" stop-color="#AB6ADE"/></linearGradient></defs></svg>