<svg width="88" height="186" viewBox="0 0 88 186" fill="none"
  xmlns="http://www.w3.org/2000/svg">
  <path d="M69.3736 98.5946C65.9299 100.539 62.4861 102.427 59.0423 104.427C54.8764 106.871 50.8773 109.537 46.6003 111.703C44.3785 112.87 41.7679 113.703 39.3239 113.98C34.2138 114.536 30.5479 111.425 30.4368 106.371C30.3812 103.094 30.881 99.7055 31.9363 96.595C34.047 90.3184 36.6022 84.153 39.0462 77.9875C40.3237 74.6548 41.6568 71.2666 42.9343 68.045C40.5459 66.212 39.046 67.7117 37.4908 68.4894C31.4919 71.4332 25.6044 74.4882 19.6055 77.2655C17.2727 78.3208 14.7175 79.0984 12.2179 79.5983C5.10822 80.9314 -0.390654 75.6546 0.886874 68.6004C1.55341 64.99 2.94197 61.4908 4.44168 58.1581C8.88526 48.4378 13.6622 38.8285 18.1613 29.1082C21.3829 22.054 24.3268 14.8887 27.3818 7.77899C27.9928 6.44592 28.437 5.0018 29.1591 3.72427C30.4921 1.2803 33.1029 0.0582785 35.6579 0.558181C38.1574 1.05808 40.157 3.33544 39.8238 6.27931C39.4349 9.55645 38.8239 12.8892 37.5464 15.8886C32.7695 27.1086 27.7149 38.2175 22.7714 49.3265C20.994 53.2701 19.1612 57.2138 17.4394 60.9353C19.8278 63.3793 21.4385 61.824 22.9382 61.1019C29.2148 57.9914 35.4357 54.7143 41.7678 51.7149C44.7672 50.3263 47.8776 49.0487 51.0992 48.3266C57.1536 46.9935 62.3194 51.7149 61.4862 57.8248C61.0418 61.0464 59.7644 64.2125 58.4868 67.2674C55.7096 74.0994 52.6545 80.8203 49.7662 87.6523C49.0997 89.2631 48.8219 90.985 48.3776 92.5403C51.4881 94.2621 52.9878 92.0403 54.7652 91.2072C60.7641 88.3744 66.4853 84.8195 72.6507 82.4866C81.2046 79.2095 87.6477 84.0974 86.759 93.2068C86.3147 97.5393 85.0371 101.983 83.093 105.871C79.3715 113.481 74.8725 120.757 70.7067 128.144C66.2076 136.198 61.7084 144.197 57.3759 151.862C59.2089 154.861 60.8751 153.639 62.4859 152.917C65.8741 151.418 69.0958 149.418 72.5951 148.474C75.7056 147.641 79.0939 147.53 82.3155 147.807C84.9816 148.085 87.4255 151.695 87.5366 154.306C87.6477 156.972 85.537 160.471 82.5376 160.86C67.5405 162.971 56.5426 172.414 44.9893 180.912C43.2119 182.245 41.4344 183.689 39.4348 184.522C34.9913 186.355 30.1589 184.022 28.8813 179.357C28.2148 176.913 27.9928 174.247 27.9373 171.691C27.6595 164.693 27.7706 157.639 27.3262 150.64C27.104 147.03 26.3265 143.419 25.4933 139.864C24.6046 136.143 25.2711 133.643 27.9373 132.421C30.77 131.088 34.3804 131.533 35.9912 133.865C37.4354 135.921 38.4351 138.365 39.2127 140.809C39.7682 142.53 39.6571 144.475 39.8238 146.307C39.9904 147.752 40.157 149.196 40.3792 151.084C41.5456 150.529 42.8788 150.362 43.2676 149.64C50.9884 136.198 58.6535 122.701 66.3187 109.204C67.9295 106.371 69.3181 103.371 70.7623 100.483C70.429 99.761 69.9291 99.2056 69.3736 98.5946Z" fill="currentColor"/>
</svg>
